<?xml version="1.0" standalone="no"?>
<!DOCTYPE svg PUBLIC "-//W3C//DTD SVG 20010904//EN"
 "http://www.w3.org/TR/2001/REC-SVG-20010904/DTD/svg10.dtd">
<svg version="1.0" xmlns="http://www.w3.org/2000/svg"
 width="1080.000000pt" height="1080.000000pt" viewBox="0 0 1080.000000 1080.000000"
 preserveAspectRatio="xMidYMid meet">

<g transform="translate(0.000000,1080.000000) scale(0.100000,-0.100000)"
fill="#000000" stroke="none">
<path d="M4938 8210 c-191 -40 -355 -117 -478 -223 -148 -128 -590 -552 -639
-612 -33 -42 -85 -124 -116 -183 -30 -59 -75 -132 -99 -163 l-45 -56 -59 15
c-55 15 -63 15 -106 -2 -92 -35 -146 -119 -130 -203 8 -41 21 -55 218 -233
145 -131 174 -150 234 -150 79 0 147 41 183 112 33 64 22 119 -37 179 l-35 36
65 75 c110 126 181 160 290 140 35 -7 75 -12 89 -12 36 0 116 28 150 52 15 11
33 18 40 15 18 -7 692 -627 692 -637 0 -10 -40 -45 -830 -730 -357 -309 -672
-584 -699 -609 -100 -95 -124 -213 -65 -329 88 -176 302 -246 472 -155 55 30
68 42 910 866 274 268 502 487 505 487 7 0 375 -354 1063 -1021 157 -152 301
-285 320 -295 51 -28 141 -24 204 8 47 25 346 292 393 353 12 15 27 45 34 66
23 77 25 74 -742 750 -388 341 -714 629 -725 640 -19 19 -19 19 25 65 25 25
115 112 200 194 l155 147 300 -53 c165 -30 310 -53 322 -51 15 1 96 100 284
347 144 189 262 351 263 358 1 8 -45 56 -101 108 l-101 95 -237 -217 -236
-216 -150 38 c-83 21 -156 43 -164 48 -10 9 -95 264 -95 288 0 5 428 401 458
423 10 9 -11 34 -103 120 -110 102 -118 108 -138 95 -12 -8 -188 -113 -392
-233 -203 -121 -375 -224 -382 -231 -8 -8 7 -82 61 -304 l73 -292 -76 -68
c-42 -38 -163 -144 -269 -236 -192 -167 -194 -168 -215 -149 -35 30 -630 573
-661 603 l-29 28 18 39 c25 52 24 108 -4 172 -30 70 -27 162 8 236 34 71 177
208 277 267 174 102 356 153 518 146 l101 -4 -94 22 c-232 57 -502 70 -673 34z
m-1019 -3281 c55 -19 94 -125 71 -193 -33 -102 -201 -111 -260 -14 -73 120 50
255 189 207z"/>
<path d="M8550 4205 c-183 -59 -224 -288 -68 -379 24 -14 83 -35 131 -47 49
-12 97 -29 107 -38 31 -27 33 -56 7 -87 -33 -38 -116 -45 -202 -16 -33 11 -60
20 -61 19 0 -1 -12 -35 -26 -75 -30 -84 -33 -80 72 -107 177 -46 380 39 408
171 13 59 1 133 -27 173 -29 40 -107 78 -211 102 -65 15 -101 29 -117 45 -29
29 -29 36 0 70 27 31 99 43 162 25 21 -6 41 -9 43 -6 3 2 13 34 23 70 l18 66
-27 10 c-46 18 -182 21 -232 4z"/>
<path d="M2192 4188 c-109 -16 -218 -103 -268 -211 -26 -56 -29 -72 -29 -167
0 -93 3 -112 26 -161 30 -64 90 -129 145 -157 l37 -19 -32 -6 c-43 -9 -91 -44
-91 -66 0 -9 6 -25 13 -35 11 -14 17 -15 42 -6 48 18 107 3 195 -51 99 -60
151 -75 207 -60 51 14 93 47 93 72 0 11 -5 40 -11 64 l-11 43 -34 -14 c-45
-19 -63 -18 -131 8 l-58 22 47 12 c106 27 209 119 249 222 18 44 23 79 23 152
1 88 -1 100 -32 162 -72 146 -217 221 -380 196z m168 -192 c126 -83 71 -354
-77 -382 -40 -8 -114 8 -150 32 -110 71 -80 301 47 367 48 25 129 17 180 -17z"/>
<path d="M2716 4089 c-9 -28 -76 -485 -76 -520 0 -143 123 -240 306 -242 72
-1 86 2 135 29 46 26 59 41 86 95 28 56 37 95 68 299 19 129 35 242 35 251 0
12 -19 18 -77 27 -42 7 -77 11 -79 10 -1 -2 -18 -105 -38 -229 -19 -125 -40
-238 -45 -252 -16 -42 -51 -67 -94 -67 -78 0 -127 42 -127 110 0 23 43 320 65
446 5 31 5 31 -46 38 -29 4 -65 10 -80 13 -19 4 -30 1 -33 -8z"/>
<path d="M7851 4066 c-68 -11 -126 -26 -128 -32 -4 -11 106 -696 112 -702 3
-3 130 16 151 23 8 2 4 44 -11 137 -13 73 -22 134 -20 136 1 2 60 -50 130
-115 70 -65 130 -118 134 -118 32 1 191 30 191 35 0 4 -63 61 -139 126 -77 65
-140 121 -140 124 -1 3 14 15 33 27 85 55 102 208 33 307 -28 40 -110 76 -172
75 -27 -1 -106 -11 -174 -23z m190 -145 c20 -20 29 -39 29 -61 0 -58 -23 -82
-98 -98 l-40 -10 -11 67 c-7 36 -14 78 -17 93 -6 29 4 35 69 37 30 1 45 -5 68
-28z"/>
<path d="M3312 3663 c-23 -186 -42 -348 -42 -359 0 -20 7 -22 76 -29 41 -4 77
-5 79 -3 8 8 93 703 87 710 -4 3 -41 9 -82 13 l-75 7 -43 -339z"/>
<path d="M7213 3979 c-75 -29 -155 -106 -195 -187 -30 -60 -33 -75 -33 -152 1
-100 13 -145 57 -220 64 -106 176 -166 308 -163 146 2 259 73 322 201 31 62
33 74 33 167 0 93 -2 105 -33 167 -41 83 -120 158 -197 187 -74 28 -190 28
-262 0z m230 -164 c78 -51 113 -213 65 -305 -39 -76 -124 -113 -207 -90 -83
22 -131 91 -139 202 -8 116 50 201 148 218 46 8 98 -2 133 -25z"/>
<path d="M3818 3931 c-120 -39 -192 -102 -246 -211 -23 -47 -27 -68 -27 -140
0 -76 4 -92 33 -152 41 -85 128 -167 209 -199 78 -30 234 -33 306 -5 37 14 47
22 42 35 -4 9 -16 41 -27 71 -11 30 -21 56 -22 57 -1 1 -20 -4 -41 -12 -125
-44 -267 16 -311 131 -35 93 10 207 100 253 69 36 161 35 233 -2 l51 -26 41
64 40 64 -25 20 c-78 61 -252 87 -356 52z"/>
<path d="M6678 3926 l-248 -20 0 -57 c0 -91 -1 -90 96 -83 l84 7 1 -29 c0 -16
10 -144 22 -284 l22 -255 79 2 c44 2 81 5 83 6 3 4 -31 451 -41 533 l-5 42 84
7 85 7 -1 51 c-2 101 22 95 -261 73z"/>
<path d="M4246 3878 c-7 -46 -39 -678 -35 -683 2 -1 38 -6 80 -10 l76 -7 6 38
c4 22 7 71 8 109 0 39 4 89 7 113 l7 43 120 -155 c99 -129 125 -157 150 -161
38 -6 195 -11 195 -7 0 2 -70 92 -155 199 l-155 195 129 137 c71 75 138 145
150 155 11 11 21 22 21 26 0 4 -42 11 -93 15 l-93 7 -75 -79 c-41 -43 -101
-105 -133 -138 l-58 -60 7 141 c7 163 12 154 -90 154 l-64 0 -5 -32z"/>
<path d="M5977 3890 c-102 -26 -190 -102 -240 -208 -28 -60 -31 -76 -31 -157
1 -106 25 -179 80 -243 101 -118 245 -159 398 -112 87 27 171 103 212 192 26
56 29 74 29 163 0 93 -2 105 -32 166 -61 124 -175 200 -307 205 -39 2 -88 -1
-109 -6z m192 -179 c98 -70 109 -276 20 -358 -66 -60 -176 -58 -242 5 -49 46
-61 80 -62 167 0 70 3 86 28 127 38 65 84 89 162 85 45 -2 70 -9 94 -26z"/>
<path d="M4947 3873 c-3 -5 -19 -150 -36 -323 -17 -173 -33 -334 -36 -357 l-6
-43 84 0 84 0 19 218 19 217 75 -215 75 -215 49 0 48 0 73 203 c73 203 85 232
85 197 0 -28 19 -292 26 -352 l5 -53 80 0 79 0 -1 38 c0 20 -13 181 -27 357
l-27 320 -89 0 -90 0 -72 -185 c-41 -102 -77 -193 -82 -204 -6 -14 -26 31 -81
180 -41 110 -77 202 -80 206 -10 11 -168 21 -174 11z"/>
</g>
</svg>
