<?xml version="1.0" standalone="no"?>
<!DOCTYPE svg PUBLIC "-//W3C//DTD SVG 20010904//EN"
 "http://www.w3.org/TR/2001/REC-SVG-20010904/DTD/svg10.dtd">
<svg version="1.0" xmlns="http://www.w3.org/2000/svg"
 width="642.000000pt" height="620.000000pt" viewBox="0 0 642.000000 620.000000"
 preserveAspectRatio="xMidYMid meet">

<g transform="translate(0.000000,620.000000) scale(0.100000,-0.100000)"
fill="#000000" stroke="none">
<path d="M2658 5090 c-191 -40 -355 -117 -478 -223 -148 -128 -590 -552 -639
-612 -33 -42 -85 -124 -116 -183 -30 -59 -75 -132 -99 -163 l-45 -56 -59 15
c-55 15 -63 15 -106 -2 -92 -35 -146 -119 -130 -203 8 -41 21 -55 218 -233
145 -131 174 -150 234 -150 79 0 147 41 183 112 33 64 22 119 -37 179 l-35 36
65 75 c110 126 181 160 290 140 35 -7 75 -12 89 -12 36 0 116 28 150 52 15 11
33 18 40 15 18 -7 692 -627 692 -637 0 -10 -40 -45 -830 -730 -357 -309 -672
-584 -699 -609 -100 -95 -124 -213 -65 -329 88 -176 302 -246 472 -155 55 30
68 42 910 866 274 268 502 487 505 487 7 0 375 -354 1063 -1021 157 -152 301
-285 320 -295 51 -28 141 -24 204 8 47 25 346 292 393 353 12 15 27 45 34 66
23 77 25 74 -742 750 -388 341 -714 629 -725 640 -19 19 -19 19 25 65 25 25
115 112 200 194 l155 147 300 -53 c165 -30 310 -53 322 -51 15 1 96 100 284
347 144 189 262 351 263 358 1 8 -45 56 -101 108 l-101 95 -237 -217 -236
-216 -150 38 c-83 21 -156 43 -164 48 -10 9 -95 264 -95 288 0 5 428 401 458
423 10 9 -11 34 -103 120 -110 102 -118 108 -138 95 -12 -8 -188 -113 -392
-233 -203 -121 -375 -224 -382 -231 -8 -8 7 -82 61 -304 l73 -292 -76 -68
c-42 -38 -163 -144 -269 -236 -192 -167 -194 -168 -215 -149 -35 30 -630 573
-661 603 l-29 28 18 39 c25 52 24 108 -4 172 -30 70 -27 162 8 236 34 71 177
208 277 267 174 102 356 153 518 146 l101 -4 -94 22 c-232 57 -502 70 -673 34z
m-1019 -3281 c55 -19 94 -125 71 -193 -33 -102 -201 -111 -260 -14 -73 120 50
255 189 207z"/>
</g>
</svg>
