<?xml version="1.0" standalone="no"?>
<!DOCTYPE svg PUBLIC "-//W3C//DTD SVG 20010904//EN"
 "http://www.w3.org/TR/2001/REC-SVG-20010904/DTD/svg10.dtd">
<svg version="1.0" xmlns="http://www.w3.org/2000/svg"
 width="508.000000pt" height="508.000000pt" viewBox="0 0 508.000000 508.000000"
 preserveAspectRatio="xMidYMid meet">
<metadata>
Created by potrace 1.14, written by Peter Selinger 2001-2017
</metadata>
<g transform="translate(0.000000,508.000000) scale(0.100000,-0.100000)"
fill="#000000" stroke="none">
<path d="M2220 4133 c-14 -2 -52 -8 -85 -15 -33 -6 -69 -12 -80 -14 -11 -1
-21 -3 -22 -4 -2 -2 -7 -3 -12 -4 -5 0 -13 -4 -17 -8 -4 -5 -15 -8 -23 -8 -27
0 -152 -65 -208 -107 -103 -78 -497 -448 -567 -533 -16 -19 -62 -99 -100 -172
-16 -30 -43 -73 -61 -93 -31 -37 -33 -38 -71 -28 -94 24 -194 -46 -198 -137
-3 -52 10 -66 241 -274 63 -58 85 -65 174 -57 9 0 34 18 56 40 64 60 69 132
13 186 -29 28 -29 28 -11 54 38 53 107 115 149 133 34 15 55 18 100 13 87 -11
122 -7 180 21 52 25 54 26 71 8 10 -11 60 -57 111 -104 51 -47 103 -94 114
-105 12 -11 64 -58 116 -105 169 -153 192 -178 177 -187 -14 -8 -126 -105
-171 -148 -12 -11 -46 -40 -76 -65 -30 -25 -57 -47 -60 -50 -7 -8 -160 -142
-239 -210 -36 -30 -77 -66 -91 -80 -15 -14 -40 -36 -56 -49 -42 -36 -238 -205
-244 -211 -3 -3 -54 -47 -115 -99 -172 -147 -210 -191 -222 -252 -30 -147 91
-288 259 -303 51 -4 134 24 176 59 36 30 455 437 977 950 l103 101 123 -120
c275 -265 603 -584 754 -731 180 -176 232 -215 284 -215 49 0 126 39 183 92
25 23 87 80 136 126 166 153 163 179 -43 357 -38 33 -76 67 -85 75 -9 8 -88
78 -175 154 -88 77 -164 144 -170 150 -5 6 -64 58 -130 115 -66 58 -127 112
-136 120 -9 9 -29 27 -45 41 -86 74 -274 242 -274 245 0 1 57 58 126 126 70
68 138 136 151 151 27 28 41 29 148 8 28 -6 64 -12 80 -15 17 -2 44 -7 60 -10
120 -23 177 -32 238 -38 9 -1 67 67 149 174 73 97 168 222 211 278 42 55 77
105 77 110 0 8 -52 61 -104 106 -7 6 -23 20 -37 32 l-24 22 -31 -27 c-36 -31
-201 -182 -283 -259 -45 -43 -61 -52 -81 -48 -14 3 -71 17 -127 32 -115 29
-102 15 -148 167 l-27 89 49 46 c27 25 83 76 124 113 41 37 102 93 136 126
l63 58 -63 59 c-34 33 -76 72 -93 87 l-30 28 -119 -73 c-66 -41 -151 -91 -188
-113 -85 -48 -153 -89 -219 -129 -9 -5 -39 -23 -67 -39 -28 -16 -48 -33 -45
-38 3 -4 7 -18 9 -31 3 -12 25 -105 51 -207 26 -102 48 -194 49 -206 2 -15
-17 -38 -74 -87 -42 -36 -85 -74 -96 -84 -117 -108 -248 -212 -259 -206 -8 5
-60 52 -117 105 -57 53 -116 107 -130 120 -14 13 -70 64 -124 113 -53 50 -115
106 -137 125 -37 34 -38 38 -28 65 21 54 20 92 -1 141 -32 71 -22 149 25 219
39 56 108 125 126 125 5 0 10 4 10 8 0 5 12 15 28 23 15 8 29 17 32 20 11 14
110 58 190 85 73 25 101 29 193 29 59 0 107 1 107 2 0 14 -282 61 -379 63 -41
1 -77 2 -80 4 -3 1 -17 1 -31 -1z m-907 -2630 c19 -11 43 -81 40 -118 -4 -61
-40 -89 -110 -83 -69 6 -103 36 -110 99 -4 39 -1 48 27 76 17 17 41 34 53 36
23 5 86 -1 100 -10z"/>
</g>
</svg>
